<svg width="415" height="374" viewBox="0 0 415 374" fill="none" xmlns="http://www.w3.org/2000/svg">
<path d="M352.75 0H62.25C45.7403 0 29.9067 7.38815 18.2326 20.5391C6.55847 33.6901 0 51.5267 0 70.125V303.875C0 322.473 6.55847 340.31 18.2326 353.461C29.9067 366.612 45.7403 374 62.25 374H352.75C369.26 374 385.093 366.612 396.767 353.461C408.442 340.31 415 322.473 415 303.875V70.125C415 51.5267 408.442 33.6901 396.767 20.5391C385.093 7.38815 369.26 0 352.75 0ZM62.25 46.75H352.75C358.253 46.75 363.531 49.2127 367.422 53.5964C371.314 57.98 373.5 63.9256 373.5 70.125L207.5 184.195L41.5 70.125C41.5 63.9256 43.6862 57.98 47.5775 53.5964C51.4689 49.2127 56.7468 46.75 62.25 46.75ZM373.5 303.875C373.5 310.074 371.314 316.02 367.422 320.404C363.531 324.787 358.253 327.25 352.75 327.25H62.25C56.7468 327.25 51.4689 324.787 47.5775 320.404C43.6862 316.02 41.5 310.074 41.5 303.875V123.42L196.71 230.244C199.864 232.295 203.443 233.375 207.085 233.375C210.727 233.375 214.306 232.295 217.46 230.244L373.5 123.42V303.875Z" fill="black"/>
</svg>
