<svg width="301" height="276" viewBox="0 0 301 276" fill="none" xmlns="http://www.w3.org/2000/svg">
<path d="M45.6157 191.671L108.023 145.216C113.431 141.228 113.472 134.732 108.115 130.707C102.758 126.682 94.0312 126.651 88.6237 130.639L3.88879 194.532C2.64253 195.526 1.65021 196.68 0.960587 197.938C-0.320196 200.439 -0.320196 203.203 0.960587 205.704C1.65021 206.962 2.64253 208.116 3.88879 209.109L89.7217 273.003C92.336 274.872 95.7978 275.941 99.4214 276C103.061 275.998 106.549 274.92 109.121 273.003C111.737 271.105 113.213 268.502 113.213 265.783C113.213 263.063 111.737 260.46 109.121 258.562L46.1647 212.107H210.876C218.457 212.107 224.602 207.532 224.602 201.889C224.602 196.246 218.457 191.671 210.876 191.671H45.6157Z" fill="black"/>
<path d="M300.186 69.8788C299.276 68.7336 298.099 67.7186 296.709 66.8816L211.425 2.98815C206.066 -0.996048 197.385 -0.996048 192.026 2.98815C189.41 4.88571 187.934 7.48947 187.934 10.2085C187.934 12.9276 189.41 15.5313 192.026 17.4289L254.433 64.0207H89.7217C82.1411 64.0207 75.9958 68.5953 75.9958 74.2382C75.9958 79.8812 82.1411 84.4557 89.7217 84.4557H254.433L192.026 130.911C189.41 132.809 187.934 135.413 187.934 138.132C187.934 140.851 189.41 143.455 192.026 145.352C194.598 147.269 198.086 148.347 201.726 148.349C205.349 148.291 208.811 147.221 211.425 145.352L296.709 81.4586C297.955 80.4654 298.948 79.3112 299.637 78.0528C301.24 75.4847 301.437 72.5531 300.186 69.8788Z" fill="black"/>
</svg>
