<svg width="276" height="277" viewBox="0 0 276 277" fill="none" xmlns="http://www.w3.org/2000/svg">
<path fill-rule="evenodd" clip-rule="evenodd" d="M9.85715 0C15.3011 0 19.7143 4.42918 19.7143 9.89286V219.621C19.7143 228.095 19.722 233.856 20.0844 238.309C20.2419 240.242 20.4563 241.755 20.7152 242.974C20.958 242.478 21.2456 241.995 21.5791 241.531L84.2293 154.427C91.1585 144.793 104.926 143.418 113.611 151.492L136.594 172.859L238.301 24.0818C241.38 19.5765 247.516 18.4301 252.005 21.5211C256.494 24.6121 257.636 30.7701 254.557 35.2754L152.85 184.052C146.045 194.006 132.021 195.577 123.197 187.374L100.214 166.008L37.5638 253.112C36.5807 254.479 35.3143 255.519 33.9035 256.21C35.1186 256.47 36.6253 256.685 38.5517 256.843C42.9883 257.207 48.728 257.214 57.1714 257.214H266.143C271.587 257.214 276 261.643 276 267.107C276 272.571 271.587 277 266.143 277H56.7641C48.8295 277 42.2809 277 36.9463 276.563C31.4056 276.108 26.3124 275.133 21.5284 272.687C14.1094 268.893 8.07762 262.839 4.29747 255.394C1.85989 250.592 0.888323 245.481 0.435632 239.92C-0.000224878 234.566 -0.00012148 227.993 4.2513e-06 220.03L8.95156e-06 9.89286C8.95156e-06 4.42918 4.4132 0 9.85715 0Z" fill="black"/>
</svg>
