<svg width="287" height="296" viewBox="0 0 287 296" fill="none" xmlns="http://www.w3.org/2000/svg">
<g filter="url(#filter0_d_628_958)">
<path fill-rule="evenodd" clip-rule="evenodd" d="M36.4586 0H96.6153C114.542 0 129.074 14.506 129.074 32.4V63.648C129.074 81.542 114.542 96.048 96.6153 96.048H36.4586C18.5322 96.048 4 81.542 4 63.648V32.4C4 14.506 18.5322 0 36.4586 0ZM96.6153 74.448C102.558 74.3704 107.357 69.5803 107.435 63.648V32.4C107.357 26.4677 102.558 21.6776 96.6153 21.6H36.4586C30.5156 21.6776 25.7168 26.4677 25.6391 32.4V63.648C25.7168 69.5803 30.5156 74.3704 36.4586 74.448H96.6153Z" fill="black"/>
<path fill-rule="evenodd" clip-rule="evenodd" d="M200.05 0H250.541C268.467 0 283 14.506 283 32.4V130.752C283 148.646 268.467 163.152 250.541 163.152H200.05C191.429 163.191 183.151 159.789 177.056 153.705C170.96 147.62 167.553 139.357 167.591 130.752V32.4C167.591 14.506 182.123 0 200.05 0ZM250.541 141.552C256.516 141.552 261.361 136.717 261.361 130.752V32.4C261.283 26.4677 256.484 21.6776 250.541 21.6H200.05C194.074 21.6 189.23 26.4353 189.23 32.4V130.752C189.191 133.628 190.318 136.398 192.356 138.432C194.394 140.466 197.168 141.591 200.05 141.552H250.541Z" fill="black"/>
<path fill-rule="evenodd" clip-rule="evenodd" d="M200.05 201.6H250.541C268.468 201.6 283 216.106 283 234V255.6C283 273.494 268.468 288 250.541 288H200.05C182.124 288 167.592 273.494 167.592 255.6V234C167.592 216.106 182.124 201.6 200.05 201.6ZM250.541 266.4C256.484 266.322 261.283 261.532 261.361 255.6V234C261.283 228.068 256.484 223.278 250.541 223.2H200.05C194.075 223.2 189.231 228.035 189.231 234V255.6C189.231 261.565 194.075 266.4 200.05 266.4H250.541Z" fill="black"/>
<path fill-rule="evenodd" clip-rule="evenodd" d="M36.4586 134.352H96.6153C114.542 134.352 129.074 148.858 129.074 166.752V255.6C129.074 273.494 114.542 288 96.6153 288H36.4586C18.5322 288 4 273.494 4 255.6V166.752C4 148.858 18.5322 134.352 36.4586 134.352ZM96.6153 266.4C102.558 266.322 107.357 261.532 107.435 255.6V166.752C107.357 160.82 102.558 156.03 96.6153 155.952H36.4586C30.5156 156.03 25.7168 160.82 25.6391 166.752V255.6C25.7168 261.532 30.5156 266.322 36.4586 266.4H96.6153Z" fill="black"/>
</g>
<defs>
</defs>
</svg>
