<svg width="328" height="409" viewBox="0 0 328 409" fill="none" xmlns="http://www.w3.org/2000/svg">
<g filter="url(#filter0_d_628_974)">
<path d="M264 140.35H104V100.25C104 84.21 110 70.175 122 58.145C146 34.085 184 34.085 206 58.145C214 66.165 218 76.19 222 86.215C224 96.24 236 102.255 246 100.25C256 98.245 264 86.215 260 76.19C256 58.145 246 42.105 234 30.075C216 10.025 190 0 164 0C108 0 64 44.11 64 100.25V140.35C30 140.35 4 166.415 4 200.5V340.85C4 374.935 30 401 64 401H264C298 401 324 374.935 324 340.85V200.5C324 166.415 298 140.35 264 140.35ZM186 270.675L184 272.68V300.75C184 312.78 176 320.8 164 320.8C152 320.8 144 312.78 144 300.75V272.68C132 260.65 130 242.605 142 230.575C154 218.545 172 216.54 184 228.57C196 238.595 198 258.645 186 270.675Z" fill="black"/>
</g>
<defs>
</defs>
</svg>
