<svg width="263" height="313" viewBox="0 0 263 313" fill="none" xmlns="http://www.w3.org/2000/svg">
<path fill-rule="evenodd" clip-rule="evenodd" d="M215.183 85.3636C215.183 132.509 177.718 170.727 131.501 170.727C85.2853 170.727 47.8196 132.509 47.8196 85.3636C47.8196 38.2186 85.2853 0 131.501 0C177.718 0 215.183 38.2186 215.183 85.3636ZM193.267 85.3636C193.267 120.161 165.613 148.37 131.501 148.37C97.3895 148.37 69.7363 120.161 69.7363 85.3636C69.7363 50.5661 97.3895 22.3571 131.501 22.3571C165.613 22.3571 193.267 50.5661 193.267 85.3636Z" fill="black"/>
<path d="M21.9167 268.286C21.9167 255.938 31.7291 245.929 43.8333 245.929H131.5H219.167C231.271 245.929 241.083 255.938 241.083 268.286V301.821C241.083 307.995 245.99 313 252.042 313C258.094 313 263 307.995 263 301.821V268.286C263 243.591 243.375 223.571 219.167 223.571H43.8333C19.6249 223.571 0 243.591 0 268.286V301.821C0 307.995 4.90621 313 10.9583 313C17.0105 313 21.9167 307.995 21.9167 301.821V268.286Z" fill="black"/>
</svg>
