<svg width="29" height="22" viewBox="0 0 29 22" fill="none" xmlns="http://www.w3.org/2000/svg">
<mask id="path-1-inside-1_128_4141" fill="white">
<rect x="4.22827" width="24.3129" height="13.2776" rx="1"/>
</mask>
<rect x="4.22827" width="24.3129" height="13.2776" rx="1" stroke="#F66F17" stroke-width="3" mask="url(#path-1-inside-1_128_4141)"/>
<path d="M22.0129 17.5205L18.8645 20.2475M22.0129 17.5205L19.1905 14.4785M22.0129 17.5205L12.685 17.5205" stroke="#F66F17" stroke-width="1.5"/>
<path d="M17.9703 7.86019C17.9703 8.14344 17.8962 8.41036 17.7482 8.66093C17.6056 8.90605 17.3917 9.11032 17.1065 9.27374C16.8268 9.43171 16.495 9.52431 16.1111 9.55154L16.1111 10.2134L15.5846 10.2134L15.5846 9.54337C15.0362 9.49435 14.5947 9.33093 14.2602 9.05313C13.9257 8.76987 13.7529 8.38857 13.7419 7.90921L14.9759 7.90921C15.0088 8.30141 15.2117 8.53836 15.5846 8.62007L15.5846 7.05945C15.1898 6.9614 14.8717 6.86335 14.6304 6.7653C14.3891 6.66725 14.1807 6.50928 14.0052 6.29139C13.8297 6.07351 13.7419 5.77663 13.7419 5.40078C13.7419 4.92687 13.912 4.54012 14.252 4.24052C14.5975 3.94093 15.0417 3.76934 15.5846 3.72576L15.5846 3.06393L16.1111 3.06393L16.1111 3.72576C16.6376 3.76934 17.0572 3.92731 17.3698 4.19967C17.6878 4.47203 17.8661 4.84789 17.9045 5.32724L16.6623 5.32724C16.6458 5.16927 16.5883 5.03309 16.4895 4.9187C16.3963 4.79886 16.2702 4.71443 16.1111 4.66541L16.1111 6.20969C16.5224 6.31318 16.846 6.41396 17.0818 6.51201C17.3231 6.60461 17.5315 6.75985 17.707 6.97774C17.8825 7.19018 17.9703 7.48433 17.9703 7.86019ZM14.943 5.34358C14.943 5.52334 14.9978 5.67041 15.1075 5.7848C15.2172 5.89375 15.3762 5.98363 15.5846 6.05444L15.5846 4.64089C15.3872 4.66813 15.2309 4.74167 15.1157 4.8615C15.0006 4.98134 14.943 5.14203 14.943 5.34358ZM16.1111 8.63641C16.3195 8.59828 16.4813 8.51385 16.5965 8.38312C16.7171 8.25239 16.7775 8.09442 16.7775 7.90921C16.7775 7.72946 16.7199 7.5851 16.6047 7.47616C16.4895 7.36722 16.325 7.27734 16.1111 7.20652L16.1111 8.63641Z" fill="#F66F17"/>
<line x1="2.11426" y1="3.58545" x2="7.39967" y2="3.58545" stroke="#F66F17"/>
<line x1="1.05713" y1="5.62793" x2="6.34254" y2="5.62793" stroke="#F66F17"/>
<line y1="7.6709" x2="5.28541" y2="7.6709" stroke="#F66F17"/>
</svg>
