<svg width="300" height="239" viewBox="0 0 300 239" fill="none" xmlns="http://www.w3.org/2000/svg">
<path fill-rule="evenodd" clip-rule="evenodd" d="M93.1034 0C75.9636 0 62.069 13.9066 62.069 31.0613V69.051L13.3748 117.787C9.33485 121.831 9.33485 128.386 13.3748 132.43C17.4147 136.473 23.9646 136.473 28.0046 132.43L62.069 98.3358V166.524C62.069 172.242 66.7005 176.877 72.4138 176.877H85.2079C92.1161 176.877 98.9144 175.146 104.983 171.842L159.001 142.429C163.796 139.818 169.788 141.274 172.853 145.796C175.764 150.093 175.145 155.867 171.389 159.447L115.648 212.58C111.801 216.247 106.692 218.292 101.379 218.292H10.3448C4.63154 218.292 0 222.928 0 228.646C0 234.364 4.63154 239 10.3448 239H101.379C112.005 239 122.223 234.909 129.917 227.575L185.658 174.442C196.738 163.88 198.565 146.848 189.976 134.173C180.936 120.834 163.259 116.536 149.113 124.239L95.0953 153.652C92.0612 155.304 88.662 156.17 85.2079 156.17H82.7586V82.8302L279.31 82.8301V145.816C279.31 151.534 274.679 156.17 268.966 156.17H227.586C221.873 156.17 217.241 160.805 217.241 166.524C217.241 172.242 221.873 176.877 227.586 176.877H268.966C286.105 176.877 300 162.971 300 145.816V31.0613C300 13.9066 286.105 0 268.966 0H93.1034ZM279.31 62.1226V31.0613C279.31 25.3431 274.679 20.7075 268.966 20.7075H93.1034C87.3902 20.7075 82.7586 25.3431 82.7586 31.0613V62.1226L279.31 62.1226Z" fill="black"/>
</svg>
